{
.appVersion = "3151";
.formatVersion = 3;
DisplayStrings = (
abcdefghijklmnopqurstuvwxyz1234567890
);
customParameters = (
{
name = vendorID;
value = XXXX;
},
{
name = panose;
value = (
0,
0,
0,
0,
0,
0,
0,
0,
0,
0
);
},
{
name = unicodeRanges;
value = (
0,
1,
2,
31,
60
);
},
{
name = codePageRanges;
value = (
"1252",
"1250"
);
},
{
name = fsType;
value = (
);
},
{
name = glyphOrder;
value = (
.notdef,
.null,
controlLF,
controlCR,
space,
exclam,
quotesingle,
comma,
hyphen,
period,
zero,
one,
two,
three,
four,
five,
six,
seven,
eight,
nine,
question,
a,
b,
c,
d,
e,
f,
g,
h,
i,
j,
k,
l,
m,
n,
o,
p,
q,
r,
s,
t,
u,
v,
w,
x,
y,
z,
nonbreakingspace,
softhyphen,
quoteright,
two.alt1,
w.alt1,
u.alt1,
y.alt1,
r.alt1,
e.alt1
);
}
);
date = "2020-02-27 18:22:38 +0000";
familyName = Qualifier;
features = (
{
automatic = 1;
code = "";
tag = aalt;
}
);
fontMaster = (
{
customParameters = (
{
name = typoAscender;
value = 960;
},
{
name = typoDescender;
value = -120;
},
{
name = typoLineGap;
value = 0;
},
{
name = winAscent;
value = 854;
},
{
name = winDescent;
value = 171;
},
{
name = hheaAscender;
value = 960;
},
{
name = hheaDescender;
value = -120;
},
{
name = strikeoutPosition;
value = 258;
},
{
name = strikeoutSize;
value = 49;
}
);
id = m01;
metricValues = (
{
pos = 960;
},
{
pos = 700;
},
{
pos = 852;
},
{
},
{
pos = -120;
},
{
}
);
name = Regular;
}
);
glyphs = (
{
glyphname = exclam;
layers = (
{
layerId = m01;
shapes = (
{
closed = 1;
nodes = (
(0,0,l),
(340.34,0,l),
(102.1,170.17,l)
);
},
{
closed = 1;
nodes = (
(510.51,850.85,l),
(127.63,212.71,l),
(467.97,212.71,l),
(850.85,850.85,l)
);
}
);
width = 851;
}
);
note = exclam;
unicode = 33;
},
{
glyphname = quotesingle;
layers = (
{
layerId = m01;
shapes = (
{
closed = 1;
nodes = (
(303.21,840.34,l),
(226.63,712.71,l),
(286.19,670.17,l),
(99,500,l),
(491.19,586.41,l),
(643.55,840.34,l)
);
}
);
width = 644;
}
);
note = quotesingle;
unicode = (39,8216);
},
{
glyphname = comma;
layers = (
{
layerId = m01;
shapes = (
{
closed = 1;
nodes = (
(203.6,169.34,l),
(127.2,42.01,l),
(187.19,-0.83,l),
(0,-171,l),
(382.69,-86.06,l),
(535.02,169.35,l)
);
}
);
width = 536;
}
);
note = comma;
unicode = 44;
},
{
glyphname = hyphen;
layers = (
{
layerId = m01;
shapes = (
{
closed = 1;
nodes = (
(102.1,470.17,l),
(0,300,l),
(595.6,300,l),
(697.7,470.17,l)
);
}
);
width = 698;
}
);
note = hyphen;
unicode = 45;
},
{
glyphname = period;
layers = (
{
layerId = m01;
shapes = (
{
closed = 1;
nodes = (
(102.1,170.17,l),
(0,0,l),
(255.26,0,l),
(357.36,170.17,l)
);
}
);
width = 357;
}
);
note = period;
unicode = 46;
},
{
glyphname = zero;
layers = (
{
layerId = m01;
shapes = (
{
closed = 1;
nodes = (
(1361.37,850.86,l),
(606.48,850.86,ls),
(546.94,850.86,o),
(491.76,819.61,o),
(461.13,768.57,cs),
(0,0,l),
(753.63,0,ls),
(813.95,0,o),
(869.85,31.65,o),
(900.87,83.37,cs)
);
},
{
closed = 1;
nodes = (
(918.93,680.68,l),
(612.61,170.17,l),
(442.44,170.17,l),
(646.65,510.51,l),
(408.41,680.68,l)
);
}
);
width = 1227;
}
);
note = zero;
unicode = 48;
},
{
glyphname = one;
layers = (
{
layerId = m01;
shapes = (
{
closed = 1;
nodes = (
(850.86,850.86,l),
(170.13,850.86,l),
(408.41,680.68,l),
(748.75,680.68,l)
);
},
{
closed = 1;
nodes = (
(340.35,0,l),
(648.16,509.44,l),
(408.41,680.68,l),
(0,0,l)
);
}
);
width = 652;
}
);
note = one;
unicode = 49;
},
{
glyphname = two;
layers = (
{
layerId = m01;
shapes = (
{
closed = 1;
nodes = (
(689.19,294.95,l),
(612.34,167.33,l),
(440.83,167.33,l),
(646.65,507.67,l),
(842.45,507.67,ls),
(932.11,507.67,o),
(1015.19,554.71,o),
(1061.32,631.59,cs),
(1118.48,726.83,o),
(1049.87,848.01,o),
(938.79,848.01,cs),
(621.06,848.01,ls),
(527.08,848.01,o),
(458.89,776.19,o),
(408.41,677.84,c),
(748.74,677.84,l),
(646.63,507.67,l),
(455.98,507.67,ls),
(363.12,507.67,o),
(277.08,458.95,o),
(229.31,379.33,cs),
(0,-2.84,l),
(1106.11,-2.84,l)
);
}
);
width = 1123;
}
);
note = two;
unicode = 50;
},
{
glyphname = three;
layers = (
{
layerId = m01;
shapes = (
{
closed = 1;
nodes = (
(73,0,l),
(583.51,0,l),
(685.61,170.17,l),
(175.1,170.17,l)
);
},
{
closed = 1;
nodes = (
(1059.44,509.6,l),
(1264.19,850.86,l),
(583.51,850.86,l),
(482.05,680.23,l),
(992.1,680.23,l),
(890.18,509.6,l),
(548.92,509.6,l),
(788.04,340.57,l),
(957.89,340.35,l),
(753.68,0,l),
(1094.03,0,l),
(1245.77,251.4,ls),
(1314.26,364.86,o),
(1232.55,509.6,o),
(1100.05,509.6,cs)
);
}
);
width = 1315;
}
);
note = three;
unicode = 51;
},
{
glyphname = four;
layers = (
{
layerId = m01;
shapes = (
{
closed = 1;
nodes = (
(914.65,850.86,l),
(557.65,255.85,l),
(390.77,254.62,l),
(595.6,596,l),
(153.15,425.83,l),
(0,170.58,l),
(340.35,170.58,l),
(506.74,171.01,l),
(404.14,0,l),
(744.47,0,l),
(1254.99,850.86,l)
);
}
);
width = 1054;
}
);
note = four;
unicode = 52;
},
{
glyphname = five;
layers = (
{
layerId = m01;
shapes = (
{
closed = 1;
nodes = (
(1172.71,680.68,l),
(1274.82,850.86,l),
(423.62,850.86,l),
(219.42,510.51,l),
(559.76,510.51,l),
(661.86,680.68,l)
);
},
{
closed = 1;
nodes = (
(525.72,170.17,l),
(355.55,170.17,l),
(457.66,340.35,l),
(15.21,170.17,l),
(-86.89,0,l),
(667.62,0,ls),
(727.39,0,o),
(782.78,31.36,o),
(813.54,82.62,cs),
(1070.27,510.51,l),
(559.76,510.51,l),
(678.46,424.38,l)
);
}
);
width = 1150;
}
);
note = five;
unicode = 53;
},
{
glyphname = six;
layers = (
{
layerId = m01;
shapes = (
{
closed = 1;
nodes = (
(721.17,850.86,l),
(574.56,850.86,ls),
(454.37,850.86,o),
(343,787.8,o),
(281.15,684.73,c),
(618.91,680.43,l)
);
},
{
closed = 1;
nodes = (
(518.67,513.35,l),
(636.09,425.43,l),
(483.48,171.1,l),
(313.71,171.76,l),
(518.67,513.36,l),
(281.15,684.73,l),
(24.95,257.72,ls),
(-35.26,157.37,o),
(13.55,0,o),
(170.87,0,cs),
(617.93,0.33,ls),
(681.96,0.13,o),
(741.36,33.63,o),
(774.29,88.53,cs),
(869.63,247.42,ls),
(939.32,363.58,o),
(856.14,511.47,o),
(720.66,512.22,cs)
);
}
);
width = 990;
}
);
note = six;
unicode = 54;
},
{
glyphname = seven;
layers = (
{
layerId = m01;
shapes = (
{
closed = 1;
nodes = (
(85.09,850.85,l),
(442.45,595.59,l),
(493.5,680.68,l),
(747.54,679.3,l),
(645.8,511.12,l),
(804.63,510.74,o),
(951.96,593.93,o),
(1033.67,730.12,cs),
(1106.11,850.86,l)
);
},
{
closed = 1;
nodes = (
(0,0.01,l),
(340.34,0.01,l),
(645.8,511.13,l),
(435.12,510.76,o),
(240.04,400.07,o),
(131.64,219.41,cs)
);
}
);
width = 896;
}
);
note = seven;
unicode = 55;
},
{
glyphname = eight;
layers = (
{
layerId = m01;
shapes = (
{
closed = 1;
nodes = (
(534.77,850.86,ls),
(474.99,850.86,o),
(419.6,819.49,o),
(388.84,768.24,cs),
(359.18,718.79,o),
(372.48,654.85,o),
(419.4,621.33,cs),
(574.55,510.51,l),
(676.65,680.68,l),
(847.17,680.68,l),
(794.28,592.91,l),
(186.71,360.85,ls),
(151.06,347.23,o),
(121.01,322.02,o),
(101.41,289.27,cs),
(13.5,142.39,ls),
(-24.04,79.68,o),
(21.15,0,o),
(94.22,0,cs),
(682.4,0,ls),
(742.17,0,o),
(797.56,31.36,o),
(828.32,82.62,cs),
(930.42,252.79,ls),
(960.09,302.23,o),
(946.79,366.18,o),
(899.86,399.69,cs),
(744.72,510.51,l),
(591.57,255.26,l),
(421.4,255.26,l),
(523.5,425.43,l),
(744.72,510.51,l),
(1158.24,668.93,ls),
(1178.1,676.55,o),
(1194.8,690.67,o),
(1205.62,709,cs),
(1242.59,771.7,o),
(1197.38,850.86,o),
(1124.58,850.86,cs)
);
}
);
width = 1174;
}
);
note = eight;
unicode = 56;
},
{
glyphname = nine;
layers = (
{
layerId = m01;
shapes = (
{
closed = 1;
nodes = (
(684.14,850.86,l),
(683.16,849.21,l),
(276.88,850.52,ls),
(212.85,850.71,o),
(153.45,817.21,o),
(120.51,762.31,cs),
(25.19,603.44,ls),
(-44.52,487.27,o),
(38.67,339.39,o),
(174.14,338.63,cs),
(376.13,337.5,l),
(173.63,0,l),
(320.24,0,ls),
(440.43,0,o),
(551.81,63.06,o),
(613.64,166.12,cs),
(1024.48,850.86,l)
);
},
{
closed = 1;
nodes = (
(376.13,337.5,l),
(258.71,425.43,l),
(411.31,679.76,l),
(581.09,679.1,l)
);
}
);
width = 942;
}
);
note = nine;
unicode = 57;
},
{
glyphname = question;
layers = (
{
layerId = m01;
shapes = (
{
closed = 1;
nodes = (
(127.63,212.71,l),
(467.97,212.71,l),
(595.6,425.42,l),
(255.26,425.42,l)
);
},
{
closed = 1;
nodes = (
(425.43,850.85,l),
(323.33,680.68,l),
(748.76,680.68,l),
(595.61,425.42,l),
(839.6,425.42,ls),
(899.37,425.42,o),
(954.76,456.78,o),
(985.52,508.04,cs),
(1036.57,593.13,ls),
(1104.62,706.55,o),
(1022.92,850.85,o),
(890.65,850.85,cs)
);
},
{
closed = 1;
nodes = (
(0.01,0,l),
(340.35,0,l),
(102.11,170.17,l)
);
}
);
width = 1061;
}
);
note = question;
unicode = 63;
},
{
glyphname = a;
layers = (
{
layerId = m01;
shapes = (
{
closed = 1;
nodes = (
(0,0,l),
(340.1,0,l),
(646.18,510.14,l),
(408.42,679.72,l)
);
},
{
closed = 1;
nodes = (
(617.58,850.31,ls),
(550.97,850.37,o),
(489.24,815.32,o),
(455.14,758.1,cs),
(408.43,679.72,l),
(1003.39,679.86,l),
(901.59,510.19,l),
(646.18,510.15,l),
(825.07,382.66,l),
(595.6,0.16,l),
(935.7,0.16,l),
(1291.58,592.67,ls),
(1359.71,706.11,o),
(1277.97,850.49,o),
(1145.64,850.46,cs)
);
}
);
width = 1207;
}
);
note = a;
unicode = (65,97,192,193,194,195,196,197,224,225,226,227,228,229);
},
{
glyphname = b;
layers = (
{
layerId = m01;
shapes = (
{
closed = 1;
nodes = (
(901.56,510.63,l),
(697.11,170.54,l),
(442.67,170.62,l),
(646.18,510.64,l),
(408.11,680.7,l),
(0,0.5,l),
(839.42,0,ls),
(899.29,-0.03,o),
(954.78,31.4,o),
(985.52,82.76,cs),
(1087.46,253.01,ls),
(1155.34,366.42,o),
(1073.69,510.55,o),
(941.53,510.61,cs)
);
},
{
closed = 1;
nodes = (
(646.18,510.64,l),
(901.56,510.63,l),
(905.91,517.89,o),
(997.95,671.97,o),
(1011.16,693.92,cs),
(1052.11,761.99,o),
(1003.21,850.56,o),
(923.79,850.74,cs),
(170.32,850.65,l),
(408.11,680.7,l),
(748.13,680.56,l)
);
}
);
width = 1087;
}
);
note = b;
unicode = (66,98);
},
{
glyphname = c;
layers = (
{
layerId = m01;
shapes = (
{
closed = 1;
nodes = (
(805.26,0,l),
(907.36,170.17,l),
(312.54,170.98,l),
(515.97,510.51,l),
(277.73,680.68,l),
(24.64,258.2,ls),
(-43.67,144.64,o),
(38.12,0,o),
(170.64,0,cs)
);
},
{
closed = 1;
nodes = (
(1111.57,510.51,l),
(1315.78,850.85,l),
(578.51,850.18,ls),
(455.71,850.21,o),
(340.92,785.97,o),
(277.73,680.68,c),
(873.57,680.51,l),
(771.22,510.51,l)
);
}
);
width = 1179;
}
);
note = c;
unicode = (67,99,199,231);
},
{
glyphname = d;
layers = (
{
layerId = m01;
shapes = (
{
closed = 1;
nodes = (
(170.05,850.21,l),
(408.17,680.16,l),
(1002.59,680.21,l),
(696.5,170.05,l),
(442.13,170.05,l),
(646.6,510.11,l),
(408.17,680.15,l),
(0,0,l),
(774,0,ls),
(873.61,-0.02,o),
(965.9,52.24,o),
(1017.13,137.66,cs),
(1273.05,564.43,ls),
(1348.58,690.41,o),
(1257.81,850.61,o),
(1110.94,850.55,cs)
);
}
);
width = 1166;
}
);
note = d;
unicode = (68,100);
},
{
glyphname = e;
layers = (
{
layerId = m01;
shapes = (
{
closed = 1;
nodes = (
(1360.37,850.86,l),
(509.51,850.35,l),
(407.17,680.31,l),
(1258.03,680.31,l)
);
},
{
closed = 1;
nodes = (
(849.86,0,l),
(951.96,170.17,l),
(441.12,170.2,l),
(645.61,510.25,l),
(407.17,680.31,l),
(-1,0.16,l)
);
},
{
closed = 1;
nodes = (
(1053.85,339.99,l),
(1156,510.25,l),
(645.61,510.25,l),
(883.87,340.35,l)
);
}
);
width = 1223;
}
);
note = e;
unicode = (69,101,200,201,202,203,232,233,234,235);
},
{
glyphname = f;
layers = (
{
layerId = m01;
shapes = (
{
closed = 1;
nodes = (
(170.04,850.26,l),
(408.17,680.21,l),
(1259.03,680.21,l),
(1361.37,850.76,l)
);
},
{
closed = 1;
nodes = (
(340.22,0,l),
(646.61,510.16,l),
(408.17,680.21,l),
(0,0.06,l)
);
},
{
closed = 1;
nodes = (
(646.61,510.16,l),
(884.89,340.26,l),
(1055.26,340.11,l),
(1157.16,510.42,l),
(986.85,510.17,l)
);
}
);
width = 1156;
}
);
note = f;
unicode = (70,102);
},
{
glyphname = g;
layers = (
{
layerId = m01;
shapes = (
{
closed = 1;
nodes = (
(1213.99,850.86,l),
(560.42,850.57,ls),
(438.21,850.53,o),
(322.85,786.11,o),
(261.03,680.68,c),
(1111.88,680.68,l)
);
},
{
closed = 1;
nodes = (
(677.79,383.01,l),
(549.21,170.16,l),
(295.05,170.14,l),
(499.27,510.51,l),
(261.03,680.68,l),
(27.77,291.81,ls),
(-49.31,163.4,o),
(43.19,0,o),
(192.96,0,cs),
(703.48,0,l),
(908.3,340.15,l),
(1149.73,510.51,l),
(499.27,510.51,l)
);
}
);
width = 1086;
}
);
note = g;
unicode = (71,103);
},
{
glyphname = h;
layers = (
{
layerId = m01;
shapes = (
{
closed = 1;
nodes = (
(1105.11,850.86,l),
(901.24,511.08,l),
(646.99,511.08,l),
(850.86,850.86,l),
(510.51,850.86,l),
(0,0,l),
(340.35,0,l),
(646.35,510.02,l),
(825.21,384.36,l),
(594.6,0,l),
(934.94,0,l),
(1445.45,850.86,l)
);
}
);
width = 1244;
}
);
note = h;
unicode = (72,104);
},
{
glyphname = i;
layers = (
{
layerId = m01;
shapes = (
{
closed = 1;
nodes = (
(850.86,850.86,l),
(510.51,850.86,l),
(408.41,680.68,l),
(748.75,680.68,l)
);
},
{
closed = 1;
nodes = (
(340.35,0,l),
(648.16,509.44,l),
(408.41,680.68,l),
(0,0,l)
);
}
);
width = 752;
}
);
note = i;
unicode = (73,105,204,205,206,207,236,237,238,239);
},
{
glyphname = j;
layers = (
{
layerId = m01;
shapes = (
{
closed = 1;
nodes = (
(1232.12,850.86,l),
(891.78,850.86,l),
(482.74,169.12,l),
(311.11,169.12,l),
(414.05,340.74,l),
(74.49,340.74,l),
(24.65,257.95,ls),
(-43.64,144.53,o),
(38.04,0,o),
(170.44,0,cs),
(624.62,0,ls),
(684.36,0,o),
(739.73,31.32,o),
(770.49,82.53,cs),
(1027.52,510.3,l),
(789.68,680.68,l),
(1128.87,679.01,l)
);
}
);
width = 1030;
}
);
note = j;
unicode = (74,106);
},
{
glyphname = k;
layers = (
{
layerId = m01;
shapes = (
{
closed = 1;
nodes = (
(255.26,850.85,l),
(433.94,723.22,l),
(0,-0.01,l),
(340.34,-0.01,l),
(850.85,850.84,l)
);
},
{
closed = 1;
nodes = (
(1276.28,850.84,l),
(1021.02,850.84,l),
(842.34,553.04,l),
(672.17,553.04,l),
(969.97,340.33,l),
(765.76,-0.01,l),
(1106.1,-0.01,l),
(1259.25,255.25,l),
(1021.01,425.42,l)
);
}
);
width = 1276;
}
);
note = k;
unicode = (75,107);
},
{
glyphname = l;
layers = (
{
layerId = m01;
shapes = (
{
closed = 1;
nodes = (
(440.47,170.17,l),
(848.89,850.86,l),
(508.54,850.86,l),
(202.24,340.35,l),
(439.35,170.17,l),
(102.1,170.17,l),
(0,0,l),
(932.8,0,l),
(1034.9,170.17,l)
);
}
);
width = 1080;
}
);
note = l;
unicode = (76,108);
},
{
glyphname = m;
layers = (
{
layerId = m01;
shapes = (
{
closed = 1;
nodes = (
(340.35,0,l),
(646.69,510.59,l),
(408.46,680.77,l),
(0,0,l)
);
},
{
closed = 1;
nodes = (
(918.97,680.66,l),
(510.51,0,l),
(850.86,0,l),
(1157.16,510.51,l)
);
},
{
closed = 1;
nodes = (
(1429.49,680.77,l),
(1021.03,0,l),
(1361.37,0,l),
(1586.87,375.84,ls),
(1632.51,451.9,o),
(1612.07,550.26,o),
(1539.91,601.84,cs)
);
},
{
closed = 1;
nodes = (
(176.77,849.88,l),
(408.46,680.77,l),
(1429.49,680.77,l),
(1191.19,850.86,l)
);
}
);
width = 1561;
}
);
note = m;
unicode = (77,109);
},
{
glyphname = n;
layers = (
{
layerId = m01;
shapes = (
{
closed = 1;
nodes = (
(340.35,0,l),
(646.65,510.51,l),
(408.41,680.68,l),
(0,0,l)
);
},
{
closed = 1;
nodes = (
(175.27,850.86,l),
(408.41,680.68,l),
(1003.6,680.68,l),
(595.2,0,l),
(938.19,0.11,l),
(1292.2,593.14,ls),
(1360,706.71,o),
(1278.17,850.86,o),
(1145.9,850.86,cs)
);
}
);
width = 1251;
}
);
note = n;
unicode = (78,110,209,241);
},
{
glyphname = o;
layers = (
{
layerId = m01;
shapes = (
{
closed = 1;
nodes = (
(278.3,680.68,l),
(873.89,680.68,l),
(567.59,170.17,l),
(312.33,170.17,l),
(516.53,510.51,l),
(278.3,680.68,l),
(24.52,257.72,ls),
(-43.54,144.3,o),
(38.16,0,o),
(170.44,0,cs),
(709.47,0,ls),
(769.25,0,o),
(824.64,31.36,o),
(855.4,82.62,cs),
(1161.7,593.13,ls),
(1229.75,706.55,o),
(1148.05,850.86,o),
(1015.78,850.86,cs),
(476.75,850.86,ls),
(416.97,850.86,o),
(361.57,819.49,o),
(330.82,768.24,cs)
);
}
);
width = 1058;
}
);
note = o;
unicode = (79,111,210,211,212,213,214,216,242,243,244,245,246,248);
},
{
glyphname = p;
layers = (
{
layerId = m01;
shapes = (
{
closed = 1;
nodes = (
(340.35,0,l),
(646.65,510.51,l),
(407.88,679.8,l),
(0,0,l)
);
},
{
closed = 1;
nodes = (
(606.86,850.86,ls),
(547.09,850.86,o),
(491.7,819.49,o),
(460.94,768.24,cs),
(407.88,679.79,l),
(1003.79,680.78,l),
(851.12,425.61,l),
(1094.78,425.48,ls),
(1154.59,425.45,o),
(1210.02,456.81,o),
(1240.8,508.1,cs),
(1291.82,593.13,ls),
(1359.87,706.55,o),
(1278.17,850.86,o),
(1145.9,850.86,cs)
);
}
);
width = 1118;
}
);
note = p;
unicode = (80,112);
},
{
glyphname = q;
layers = (
{
layerId = m01;
shapes = (
{
closed = 1;
nodes = (
(476.75,850.86,ls),
(416.97,850.86,o),
(361.58,819.49,o),
(330.82,768.24,cs),
(278.3,680.68,l),
(873.89,680.68,l),
(567.59,170.17,l),
(312.33,170.17,l),
(516.53,510.51,l),
(278.3,680.68,l),
(24.52,257.72,ls),
(-43.54,144.3,o),
(38.16,0,o),
(170.44,0,cs),
(1145.74,0,l),
(907.75,169.72,l),
(907.6,169.63,l),
(1161.7,593.14,ls),
(1229.75,706.55,o),
(1148.05,850.86,o),
(1015.78,850.86,cs)
);
}
);
width = 1099;
}
);
note = q;
unicode = (81,113);
},
{
glyphname = r;
layers = (
{
layerId = m01;
shapes = (
{
closed = 1;
nodes = (
(170.58,850.86,l),
(408.72,680.95,l),
(901.33,681.71,l),
(766.04,425.47,l),
(408.72,680.95,l),
(0,0,l),
(340.35,0,l),
(570.07,382.89,l),
(808.32,212.74,l),
(680.68,0,l),
(1021.03,0,l),
(1042.34,35.52,ls),
(1087.97,111.58,o),
(1067.54,209.91,o),
(995.39,261.5,cs),
(766.11,425.43,l),
(924.67,425.43,ls),
(984.45,425.43,o),
(1039.84,456.79,o),
(1070.6,508.04,cs),
(1121.65,593.13,ls),
(1189.69,706.55,o),
(1107.99,850.86,o),
(975.73,850.86,cs)
);
}
);
width = 1106;
}
);
note = r;
unicode = (82,114);
},
{
glyphname = s;
layers = (
{
layerId = m01;
shapes = (
{
closed = 1;
nodes = (
(491.59,680.68,l),
(999.79,680.68,l),
(1101.9,850.86,l),
(591.39,850.86,l),
(489.97,681.83,l),
(371.69,765.77,l),
(299.52,645.47,ls),
(253.8,569.26,o),
(274.32,470.71,o),
(346.66,419.07,cs),
(697.7,170.17,l),
(597.69,0,l),
(936.34,0,l),
(1008.85,121.17,ls),
(1054.47,197.41,o),
(1033.78,295.91,o),
(961.32,347.33,cs)
);
},
{
closed = 1;
nodes = (
(0,0,l),
(425.43,0,l),
(527.53,170.17,l),
(102.1,170.17,l)
);
}
);
width = 1072;
}
);
note = s;
unicode = (83,115);
},
{
glyphname = t;
layers = (
{
layerId = m01;
shapes = (
{
closed = 1;
nodes = (
(170.17,850.86,l),
(68.07,680.68,l),
(1004.01,680.68,l),
(1106.11,850.86,l)
);
},
{
closed = 1;
nodes = (
(0,0,l),
(340.35,0,l),
(646.65,510.51,l),
(408.14,680.24,l)
);
}
);
width = 973;
}
);
note = t;
unicode = (84,116);
},
{
glyphname = u;
layers = (
{
layerId = m01;
shapes = (
{
closed = 1;
nodes = (
(975.83,850.85,l),
(669.52,340.34,l),
(907.76,170.17,l),
(1316.17,850.85,l)
);
},
{
closed = 1;
nodes = (
(720.98,850.85,l),
(380.23,850.85,l),
(24.42,257.84,ls),
(-43.38,144.27,o),
(37.99,0,o),
(170.27,0,cs),
(805.66,0,l),
(907.76,170.17,l),
(312.57,170.17,l)
);
}
);
width = 1187;
}
);
note = u;
unicode = (85,117,217,218,219,220,249,250,251,252);
},
{
glyphname = v;
layers = (
{
layerId = m01;
shapes = (
{
closed = 1;
nodes = (
(850.86,850.86,l),
(510.51,850.86,l),
(407.18,680.68,l),
(747.64,680.68,l)
);
},
{
closed = 1;
nodes = (
(1106.11,850.86,l),
(655.37,504.13,l),
(407.18,680.68,l),
(0,0,l),
(337.91,0,l),
(1443.15,850.86,l)
);
}
);
width = 1200;
}
);
note = v;
unicode = (86,118);
},
{
glyphname = w;
layers = (
{
layerId = m01;
shapes = (
{
closed = 1;
nodes = (
(1616.62,850.85,l),
(1276.28,850.85,l),
(918.92,255.25,l),
(748.75,255.25,l),
(1106.11,850.85,l),
(765.77,850.85,l),
(408.41,255.25,l),
(238.24,255.25,l),
(595.6,-0.01,l),
(748.75,255.25,l),
(1106.11,-0.01,l)
);
},
{
closed = 1;
nodes = (
(254.67,850.61,l),
(0,425.42,l),
(238.24,255.25,l),
(595.6,850.85,l)
);
}
);
width = 1446;
}
);
note = w;
unicode = (87,119);
},
{
glyphname = x;
layers = (
{
layerId = m01;
shapes = (
{
closed = 1;
nodes = (
(897.79,393.75,l),
(819.31,448.04,l),
(669.01,554.98,l),
(1094.12,557.39,l),
(1447.49,851.96,l),
(681.73,851.96,l),
(862.85,720.33,l),
(666.72,556.6,l),
(553.03,637.48,l),
(212.71,637.52,l),
(510.38,426.07,l),
(0,0,l),
(425.43,0,l),
(740.49,262.62,l),
(1110.21,0,l),
(1447.49,1.11,l),
(896.79,392.91,l)
);
}
);
width = 1395;
}
);
note = x;
unicode = (88,120);
},
{
glyphname = y;
layers = (
{
layerId = m01;
shapes = (
{
closed = 1;
nodes = (
(520.25,850.85,l),
(183.42,850.85,l),
(86.53,689.59,ls),
(41.35,614.31,o),
(61.56,516.91,o),
(133.03,465.86,cs),
(240.4,389.16,l),
(0,0,l),
(343.94,0,l),
(603.47,429.84,l),
(368.74,598.23,l)
);
},
{
closed = 1;
nodes = (
(857.05,850.85,l),
(603.47,429.84,l),
(846.17,430.3,ls),
(905.16,430.39,o),
(959.84,461.4,o),
(990.25,511.96,cs),
(1193.83,850.86,l)
);
}
);
width = 1017;
}
);
note = y;
unicode = (89,121,221,253,255,376);
},
{
glyphname = z;
layers = (
{
layerId = m01;
shapes = (
{
closed = 1;
nodes = (
(1361.37,850.86,l),
(1021.03,850.86,l),
(816.84,680.7,l),
(579.5,850.86,l),
(406.25,850.86,l),
(304.15,680.68,l),
(816.82,680.68,l),
(0,0,l),
(1008.91,0,l),
(1111.02,170.17,l),
(544.42,171.46,l)
);
}
);
width = 1134;
}
);
note = z;
unicode = (90,122);
},
{
glyphname = quoteright;
layers = (
{
layerId = m01;
shapes = (
{
closed = 1;
nodes = (
(300.6,854.34,l),
(224.2,727.01,l),
(284.19,684.17,l),
(97,514,l),
(479.69,598.94,l),
(632.02,854.35,l)
);
}
);
width = 586;
}
);
note = quoteright;
unicode = 8217;
},
{
glyphname = two.alt1;
layers = (
{
layerId = m01;
shapes = (
{
closed = 1;
nodes = (
(403.72,510.51,ls),
(343.65,510.68,o),
(287.21,478.67,o),
(256.3,427.16,cs),
(0,0,l),
(1021.03,0,l),
(663.67,255.26,l),
(612.62,170.17,l),
(442.45,170.17,l),
(646.66,510.51,l)
);
},
{
closed = 1;
nodes = (
(1038.05,593.63,ls),
(1105.59,707.06,o),
(1023.85,850.85,o),
(891.83,850.85,cs),
(510.52,850.85,l),
(409.15,680.68,l),
(748.76,680.68,l),
(646.66,510.51,l),
(988.1,509.72,l)
);
}
);
width = 1063;
}
);
note = two.alt1;
unicode = 61443;
},
{
glyphname = w.alt1;
layers = (
{
layerId = m01;
shapes = (
{
closed = 1;
nodes = (
(1327.33,850.85,l),
(919.09,170.45,l),
(748.92,170.45,l),
(1157.16,850.85,l),
(816.82,850.85,l),
(408.58,170.45,l),
(237.89,170.45,l),
(475.73,-0.01,l),
(646.66,-0.01,l),
(748.51,169.74,l),
(987,0.13,l),
(1157.17,-0.01,l),
(1667.68,850.84,l)
);
},
{
closed = 1;
nodes = (
(305.73,850.61,l),
(0.01,340.33,l),
(237.9,170.45,l),
(646.66,850.85,l)
);
}
);
width = 1668;
}
);
note = w.alt1;
unicode = 61444;
},
{
glyphname = u.alt1;
layers = (
{
layerId = m01;
shapes = (
{
closed = 1;
nodes = (
(976.21,850.85,l),
(669.9,340.34,l),
(908.14,170.17,l),
(1316.55,850.85,l)
);
},
{
closed = 1;
nodes = (
(312.95,170.17,l),
(721.36,850.85,l),
(378.36,850.74,l),
(24.35,257.72,ls),
(-43.44,144.14,o),
(38.38,0,o),
(170.65,0,cs),
(1141.28,0,l),
(908.14,170.17,l)
);
}
);
width = 1317;
}
);
note = u.alt1;
unicode = 61445;
},
{
glyphname = y.alt1;
layers = (
{
layerId = m01;
shapes = (
{
closed = 1;
nodes = (
(0,0,l),
(841.5,0,ls),
(901.58,0,o),
(956.1,33.6,o),
(987.02,85.12,cs),
(1038.05,170.17,l),
(102.01,170.23,l)
);
},
{
closed = 1;
nodes = (
(1106.11,850.85,l),
(799.8,340.34,l),
(1038.04,170.17,l),
(1446.45,850.85,l)
);
},
{
closed = 1;
nodes = (
(850.85,850.85,l),
(510.51,850.85,l),
(358.83,598.06,ls),
(290.78,484.64,o),
(372.48,340.34,o),
(504.75,340.34,cs),
(799.79,340.34,l),
(621.14,467.99,l)
);
}
);
width = 1338;
}
);
note = y.alt1;
unicode = 61446;
},
{
glyphname = r.alt1;
layers = (
{
layerId = m01;
shapes = (
{
closed = 1;
nodes = (
(646.65,510.51,l),
(646.65,206.64,l),
(935.94,0,l),
(1361.37,0,l)
);
},
{
closed = 1;
nodes = (
(765.77,425.43,l),
(924.68,425.43,ls),
(984.45,425.43,o),
(1039.84,456.79,o),
(1070.6,508.05,cs),
(1121.65,593.14,ls),
(1189.7,706.56,o),
(1108,850.86,o),
(975.73,850.86,cs),
(915.64,850.86,o),
(170.17,850.86,o),
(170.17,850.86,c),
(408.41,680.69,l),
(918.92,680.69,l)
);
},
{
closed = 1;
nodes = (
(0,0.01,l),
(340.34,0.01,l),
(646.65,510.52,l),
(408.41,680.69,l)
);
}
);
width = 1361;
}
);
note = r.alt1;
unicode = 61447;
},
{
glyphname = e.alt1;
layers = (
{
layerId = m01;
shapes = (
{
closed = 1;
nodes = (
(24.66,257.96,ls),
(-43.64,144.54,o),
(38.04,0,o),
(170.43,0,cs),
(635.07,0,l),
(737.17,170.17,l),
(311.74,170.17,l),
(464.89,425.43,l),
(227.59,594.93,l)
);
},
{
closed = 1;
nodes = (
(567.93,594.93,l),
(464.9,425.42,l),
(635.07,425.42,l),
(584.02,340.33,l),
(413.85,340.33,l),
(532.97,255.24,l),
(788.23,255.24,l),
(837.47,336.78,ls),
(905.95,450.19,o),
(824.28,594.92,o),
(691.79,594.92,cs)
);
}
